<!-- Generator: Adobe Illustrator 19.0.0, SVG Export Plug-In  -->
<svg version="1.1"
   xmlns="http://www.w3.org/2000/svg" xmlns:xlink="http://www.w3.org/1999/xlink" xmlns:a="http://ns.adobe.com/AdobeSVGViewerExtensions/3.0/"
   x="0px" y="0px" width="175.3px" height="120.1px" viewBox="0 0 175.3 120.1" style="enable-background:new 0 0 175.3 120.1;"
   xml:space="preserve">
<style type="text/css">
  .st0{fill:#13494B;}
  .st1{fill:#3F7678;}
  .st2{fill:#2E999C;}
  .st3{fill:#FFFFFF;}
</style>
<defs>
</defs>
<g id="XMLID_15_">
  <rect id="XMLID_123_" y="2" class="st0" width="175.3" height="14.7"/>
  <rect id="XMLID_122_" y="32" class="st0" width="175.3" height="14.7"/>
  <rect id="XMLID_121_" y="62" class="st0" width="71.8" height="14.7"/>
  <rect id="XMLID_120_" class="st1" width="175.3" height="14.7"/>
  <rect id="XMLID_119_" y="30" class="st1" width="175.3" height="14.7"/>
  <rect id="XMLID_118_" y="60" class="st2" width="71.8" height="14.7"/>
  <g id="XMLID_58_">
    <path id="XMLID_116_" class="st0" d="M97.5,78.7l-0.2,1.6h-10V60.1h1.8v18.6H97.5z"/>
    <path id="XMLID_114_" class="st0" d="M108.4,61.6v7.5h7.2v1.5h-7.2v8.3h8.7v1.5h-10.5V60.1h10.3l-0.2,1.5H108.4z"/>
    <path id="XMLID_63_" class="st0" d="M139.7,61.8l-1.1,1.1c-1.4-1.1-2.7-1.6-4.5-1.6c-3.2,0-6.6,2.5-6.6,8.9c0,6.2,2.5,9,6.5,9
      c1.7,0,3-0.4,4.3-1.1v-7.2h-4l-0.2-1.5h5.9V79c-1.8,1-3.8,1.7-6.1,1.7c-4.9,0-8.3-3.5-8.3-10.5c0-6.9,4.2-10.4,8.4-10.4
      C136.5,59.8,138.1,60.4,139.7,61.8z"/>
    <path id="XMLID_61_" class="st0" d="M150.6,80.3V60.1h1.8v20.2H150.6z"/>
    <path id="XMLID_59_" class="st0" d="M169.2,61.7v18.7h-1.7V61.7h-6v-1.6h13.9l-0.2,1.6H169.2z"/>
  </g>
  <g id="XMLID_42_">
    <path id="XMLID_56_" class="st2" d="M97.5,76.7l-0.2,1.6h-10V58.1h1.8v18.6H97.5z"/>
    <path id="XMLID_54_" class="st2" d="M108.4,59.6v7.5h7.2v1.5h-7.2v8.3h8.7v1.5h-10.5V58.1h10.3l-0.2,1.5H108.4z"/>
    <path id="XMLID_52_" class="st2" d="M139.7,59.8l-1.1,1.1c-1.4-1.1-2.7-1.6-4.5-1.6c-3.2,0-6.6,2.5-6.6,8.9c0,6.2,2.5,9,6.5,9
      c1.7,0,3-0.4,4.3-1.1v-7.2h-4l-0.2-1.5h5.9V77c-1.8,1-3.8,1.7-6.1,1.7c-4.9,0-8.3-3.5-8.3-10.5c0-6.9,4.2-10.4,8.4-10.4
      C136.5,57.8,138.1,58.4,139.7,59.8z"/>
    <path id="XMLID_45_" class="st2" d="M150.6,78.3V58.1h1.8v20.2H150.6z"/>
    <path id="XMLID_43_" class="st2" d="M169.2,59.7v18.7h-1.7V59.7h-6v-1.6h13.9l-0.2,1.6H169.2z"/>
  </g>
  <g id="XMLID_29_">
    <path id="XMLID_40_" class="st0" d="M4.2,95.1v9.4h9v3h-9v12.1H0.4V92.1h14.6l-0.4,3H4.2z"/>
    <path id="XMLID_37_" class="st0" d="M55.1,105.9c0,9.1-4.7,14.2-11.6,14.2c-6.9,0-11.6-5-11.6-14.2c0-9.1,4.8-14.3,11.6-14.3
      C50.4,91.6,55.1,96.6,55.1,105.9z M35.9,105.9c0,8,3.1,11.1,7.6,11.1c4.6,0,7.6-3.1,7.6-11.1c0-7.9-2.9-11.2-7.6-11.2
      C38.9,94.7,35.9,97.9,35.9,105.9z"/>
    <path id="XMLID_34_" class="st0" d="M78.7,107.9v11.7h-3.8V92.1h7.2c6.9,0,10.5,2.6,10.5,7.8c0,3.9-2,6.2-6,7.4l7.4,12.4h-4.5
      L83,107.9H78.7z M88.6,99.9c0-3.4-2-4.8-6.5-4.8h-3.4v10h3.8C86.4,105,88.6,103.6,88.6,99.9z"/>
    <path id="XMLID_32_" class="st0" d="M133.7,119.6l-1-12.4c-0.4-4.3-0.6-9-0.7-11.2l-6,20.6h-3.6l-6.3-20.6c0,3.2-0.2,7.5-0.5,11.6
      l-0.9,12.2h-3.6l2.3-27.6h5.1l5.8,20l5.5-20h5.2l2.3,27.6H133.7z"/>
    <path id="XMLID_30_" class="st0" d="M173.5,94.8l-2.2,2.4c-2-1.8-3.9-2.5-6.2-2.5c-2.8,0-5,1.3-5,3.9c0,2.3,1.1,3.4,6,5
      c4.4,1.4,8.2,3.1,8.2,8.4c0,4.8-3.6,8.2-9.8,8.2c-4,0-7.1-1.3-9.4-3.6l2.2-2.4c1.9,1.8,4.1,2.9,7.1,2.9c3.2,0,5.9-1.6,5.9-4.9
      c0-2.7-1.3-3.9-6-5.3c-5.4-1.6-8.2-3.7-8.2-8c0-4.2,3.6-7.2,8.7-7.2C168.8,91.6,171.2,92.7,173.5,94.8z"/>
  </g>
  <g id="XMLID_16_">
    <path id="XMLID_27_" class="st3" d="M4.2,93.1v9.4h9v3h-9v12.1H0.4V90.1h14.6l-0.4,3H4.2z"/>
    <path id="XMLID_24_" class="st3" d="M55.1,103.9c0,9.1-4.7,14.2-11.6,14.2c-6.9,0-11.6-5-11.6-14.2c0-9.1,4.8-14.3,11.6-14.3
      C50.4,89.6,55.1,94.6,55.1,103.9z M35.9,103.9c0,8,3.1,11.1,7.6,11.1c4.6,0,7.6-3.1,7.6-11.1c0-7.9-2.9-11.2-7.6-11.2
      C38.9,92.7,35.9,95.9,35.9,103.9z"/>
    <path id="XMLID_21_" class="st3" d="M78.7,105.9v11.7h-3.8V90.1h7.2c6.9,0,10.5,2.6,10.5,7.8c0,3.9-2,6.2-6,7.4l7.4,12.4h-4.5
      L83,105.9H78.7z M88.6,97.9c0-3.4-2-4.8-6.5-4.8h-3.4v10h3.8C86.4,103,88.6,101.6,88.6,97.9z"/>
    <path id="XMLID_19_" class="st3" d="M133.7,117.6l-1-12.4c-0.4-4.3-0.6-9-0.7-11.2l-6,20.6h-3.6l-6.3-20.6c0,3.2-0.2,7.5-0.5,11.6
      l-0.9,12.2h-3.6l2.3-27.6h5.1l5.8,20l5.5-20h5.2l2.3,27.6H133.7z"/>
    <path id="XMLID_17_" class="st3" d="M173.5,92.8l-2.2,2.4c-2-1.8-3.9-2.5-6.2-2.5c-2.8,0-5,1.3-5,3.9c0,2.3,1.1,3.4,6,5
      c4.4,1.4,8.2,3.1,8.2,8.4c0,4.8-3.6,8.2-9.8,8.2c-4,0-7.1-1.3-9.4-3.6l2.2-2.4c1.9,1.8,4.1,2.9,7.1,2.9c3.2,0,5.9-1.6,5.9-4.9
      c0-2.7-1.3-3.9-6-5.3c-5.4-1.6-8.2-3.7-8.2-8c0-4.2,3.6-7.2,8.7-7.2C168.8,89.6,171.2,90.7,173.5,92.8z"/>
  </g>
</g>
</svg>

